Coordinates
version=1
nRows=15
nColumns=42
inDegrees=yes

Units are S.I. units (second, meters, Newtons, ...)
If the header above contains a line with 'inDegrees', this indicates whether rotational values are in degrees (yes) or radians (no).

endheader
time	pelvis_tilt	pelvis_list	pelvis_rotation	pelvis_tx	pelvis_ty	pelvis_tz	hip_flexion_r	hip_adduction_r	hip_rotation_r	knee_angle_r	knee_adduction_r	knee_angle_r_beta	ankle_angle_r	subtalar_angle_r	mtp_angle_r	hip_flexion_l	hip_adduction_l	hip_rotation_l	knee_angle_l	knee_adduction_l	knee_angle_l_beta	ankle_angle_l	subtalar_angle_l	mtp_angle_l	lumbar_extension	lumbar_bending	lumbar_rotation	arm_flex_r	arm_add_r	arm_rot_r	elbow_flex_r	pro_sup_r	wrist_flex_r	wrist_dev_r	arm_flex_l	arm_add_l	arm_rot_l	elbow_flex_l	pro_sup_l	wrist_flex_l	wrist_dev_l
      0.00000000	     11.82361809	      6.06089969	     -1.52008660	     -1.11236839	      0.88883377	     -0.32927510	     -3.83301929	     -9.95636834	     -7.66819498	     70.28428068	     -4.98556498	      1.22669211	     10.92996387	    -17.32265265	     -9.58880146	     -7.84017036	      8.56693467	    -11.42931777	     15.31503925	      2.23729316	      0.26729786	     17.17803659	     -5.04942065	     -9.58880146	    -24.39026239	     -9.51581449	     -3.26010713	     -3.48955030	     -1.76828978	    -21.25345874	     36.40385361	     90.00000001	      0.00000000	      0.00000000	     -1.26058987	     -5.22050863	    -24.88010271	     35.70619403	     90.00000001	      0.00000000	      0.00000000
      0.01000000	     11.70231636	      5.66698033	     -1.34102724	     -1.10232213	      0.88967004	     -0.33038512	     -1.98431799	     -9.51066022	     -7.61408810	     70.19003163	     -5.07312978	      1.22504715	     12.04209826	    -17.35112683	     -9.55883615	     -8.81816496	      8.22669114	    -11.60233637	     14.57990959	      2.22228024	      0.25446743	     17.34135561	     -4.73438492	     -9.55883615	    -24.34005862	     -8.95312200	     -3.67444280	     -3.67375331	     -1.86313998	    -21.36258560	     36.34784793	     90.00000001	      0.00000000	      0.00000000	     -0.88470700	     -5.12791437	    -24.61976041	     36.04864580	     90.00000001	      0.00000000	      0.00000000
      0.02000000	     11.54974844	      5.28328390	     -1.18477697	     -1.09233184	      0.89036526	     -0.33119220	     -0.18430962	     -9.00837815	     -7.37479016	     69.71694362	     -5.02530916	      1.21679021	     12.99838435	    -17.41721575	     -9.52855206	     -9.86607245	      7.83655159	    -11.57950096	     13.61926458	      2.39409167	      0.23770101	     17.55693871	     -4.30484976	     -9.52855206	    -24.26016031	     -8.45056804	     -4.01441798	     -3.84352720	     -1.90353033	    -21.56785709	     36.23593527	     90.00000001	      0.00000000	      0.00000000	     -0.52677096	     -5.11460637	    -24.20570105	     36.46015918	     90.00000001	      0.00000000	      0.00000000
      0.03000000	     11.39749969	      4.90490356	     -1.00319999	     -1.08220814	      0.89086015	     -0.33200657	      1.49641016	     -8.47530142	     -7.01608551	     68.91595754	     -4.86707765	      1.20281037	     13.81291720	    -17.48917487	     -9.49741801	    -10.99049392	      7.45496849	    -11.46539127	     12.50965706	      2.56208572	      0.21833470	     17.75526010	     -3.77806653	     -9.49741801	    -24.15490620	     -7.94092434	     -4.38382496	     -4.01253693	     -1.92575637	    -21.88523981	     36.08409871	     90.00000001	      0.00000000	      0.00000000	     -0.21771195	     -5.14814128	    -23.62177343	     36.93218722	     90.00000001	      0.00000000	      0.00000000
      0.04000000	     11.33101378	      4.51218847	     -0.84776736	     -1.07224938	      0.89130575	     -0.33254077	      3.01192530	     -7.92903486	     -6.58317469	     67.81820642	     -4.54395184	      1.18365099	     14.41828071	    -17.53213484	     -9.46186269	    -12.25866449	      7.03411038	    -11.17373949	     11.27448910	      2.77556576	      0.19677696	     17.88384405	     -3.06535738	     -9.46186269	    -24.16302290	     -7.46603685	     -4.72105694	     -4.08225391	     -1.88582161	    -22.35271216	     35.90036189	     90.00000001	      0.00000000	      0.00000000	      0.10206132	     -5.27258023	    -22.78684411	     37.50716138	     90.00000001	      0.00000000	      0.00000000
      0.05000000	     11.79507544	      3.99613609	     -0.57325771	     -1.06186988	      0.89229772	     -0.33307384	      3.65689602	     -7.22392303	     -6.15477189	     66.16714162	     -4.02992454	      1.15483448	     14.60956976	    -17.61113289	     -9.37034430	    -14.35732096	      6.40092045	    -10.56045470	      9.58429261	      3.17273213	      0.16727746	     17.67990293	     -2.44621424	     -9.37034430	    -24.73315681	     -6.79885167	     -5.06754229	     -4.04876740	     -1.68614942	    -23.80233474	     35.68534026	     90.00000001	      0.00000000	      0.00000000	      0.29466001	     -5.63121059	    -20.73689456	     38.27545629	     90.00000001	      0.00000000	      0.00000000
      0.06000000	     11.41200278	      3.86108265	     -0.34587998	     -1.05214830	      0.89181644	     -0.33372157	      5.48408581	     -7.01253487	     -6.07821300	     64.76190331	     -3.90968934	      1.13030844	     15.00138960	    -17.43175494	     -9.33835996	    -15.05012064	      6.24318343	    -10.80019434	      8.79823869	      3.20245259	      0.15355823	     17.78602763	     -1.88414098	     -9.33835996	    -24.43981626	     -6.56997791	     -5.54474870	     -4.17574031	     -1.65477397	    -24.00149006	     35.56567588	     90.00000001	      0.00000000	      0.00000000	      0.69703306	     -5.73464954	    -20.38665643	     38.72691080	     90.00000001	      0.00000000	      0.00000000
      0.07000000	     11.69085658	      3.40654346	     -0.12549249	     -1.04177813	      0.89208124	     -0.33410011	      6.24073132	     -6.39379189	     -5.82523356	     62.73019877	     -3.49191876	      1.09484851	     15.02572739	    -17.43548649	     -9.23806551	    -16.86434925	      5.63205703	    -10.75140673	      7.26483668	      3.56063117	      0.12679532	     17.74287808	     -0.52223588	     -9.23806551	    -24.78129027	     -5.99644636	     -5.88655286	     -4.09454012	     -1.46367524	    -25.25016378	     35.32334001	     90.00000001	      0.00000000	      0.00000000	      0.98879960	     -5.95012046	    -19.12720292	     39.34148219	     90.00000001	      0.00000000	      0.00000000
      0.08000000	     11.43208037	      3.28495069	      0.05506913	     -1.03182322	      0.89132197	     -0.33446754	      7.73202507	     -6.18204078	     -5.63231890	     60.85674167	     -3.19413780	      1.06215051	     15.07247853	    -17.22674323	     -9.19156755	    -17.88001122	      5.44412518	    -11.09107011	      6.09898375	      3.71562661	      0.10644735	     17.86599955	      0.70633166	     -9.19156755	    -24.57271244	     -5.83101674	     -6.27108158	     -4.14365513	     -1.38726763	    -25.59822609	     34.99444793	     90.00000001	      0.00000000	      0.00000000	      1.41912432	     -6.06839316	    -18.70447690	     39.83699658	     90.00000001	      0.00000000	      0.00000000
      0.09000000	     11.53439570	      3.03049447	      0.29058260	     -1.02161778	      0.89087250	     -0.33480525	      8.59853698	     -5.81376103	     -5.52793409	     58.54153785	     -2.83679494	      1.02174258	     14.94329697	    -17.01940571	     -9.12703021	    -19.28751298	      5.03958648	    -11.80279204	      5.00714432	      3.95713915	      0.08739115	     17.93752598	      2.32597436	     -9.12703021	    -24.75643118	     -5.48804460	     -6.66841799	     -4.15917570	     -1.25196191	    -26.40082683	     34.82920354	     90.00000001	      0.00000000	      0.00000000	      1.80356850	     -6.23997855	    -17.97371594	     40.39138945	     90.00000001	      0.00000000	      0.00000000
      0.10000000	     11.59467190	      2.73052009	      0.52427347	     -1.01136425	      0.89009960	     -0.33500426	      9.45102145	     -5.38007584	     -5.67309110	     56.08439910	     -2.66260534	      0.97885742	     14.76645831	    -16.73054613	     -9.03990277	    -20.54942065	      4.51699758	    -12.97829163	      4.19369346	      4.30199920	      0.07319376	     18.21855100	      4.30625939	     -9.03990277	    -24.86877287	     -5.11588900	     -6.95887551	     -4.14277751	     -1.08463956	    -27.34078428	     34.61217797	     90.00000001	      0.00000000	      0.00000000	      2.21498128	     -6.41607597	    -17.15832949	     40.98389483	     90.00000001	      0.00000000	      0.00000000
      0.11000000	     11.62517643	      2.51203194	      0.69457069	     -1.00103982	      0.88907778	     -0.33514583	     10.27829851	     -5.07144022	     -5.82867364	     53.51679985	     -2.43438547	      0.93404436	     14.57036932	    -16.32094521	     -8.95029945	    -21.74871568	      4.09092125	    -14.41580863	      3.47563646	      4.67764359	      0.06066130	     18.53860770	      6.58234705	     -8.95029945	    -24.94546839	     -4.85963456	     -7.21092677	     -4.14802234	     -0.94215454	    -28.14679733	     34.35393342	     90.00000001	      0.00000000	      0.00000000	      2.60548596	     -6.59396200	    -16.40971703	     41.60366166	     90.00000001	      0.00000000	      0.00000000
      0.12000000	     11.63137897	      2.40439125	      0.82196643	     -0.99077596	      0.88783261	     -0.33525346	     11.06712772	     -4.90926452	     -5.98720528	     50.83520345	     -2.16660746	      0.88724168	     14.43126529	    -15.72526441	     -8.88028476	    -22.89818898	      3.79267661	    -15.91736196	      2.83139321	      5.09837855	      0.04941713	     18.76412562	      8.83400730	     -8.88028476	    -25.00627609	     -4.73207718	     -7.46457437	     -4.12092970	     -0.82040936	    -28.78162870	     34.05936745	     90.00000001	      0.00000000	      0.00000000	      2.97266208	     -6.78702574	    -15.70949776	     42.26105636	     90.00000001	      0.00000000	      0.00000000
      0.13000000	     11.33467105	      2.68816522	      0.82078757	     -0.98084679	      0.88606759	     -0.33545776	     12.27034998	     -5.16391926	     -6.11763053	     48.25436052	     -2.06930018	      0.84219747	     14.16065238	    -14.95906403	     -8.85690696	    -23.62982135	      4.07590889	    -16.92150592	      2.30327616	      5.32116758	      0.04019975	     18.93475175	      9.71118429	     -8.85690696	    -24.78555208	     -5.05514027	     -7.77412395	     -4.12885674	     -0.74537788	    -28.92602331	     33.81807110	     90.00000001	      0.00000000	      0.00000000	      3.39229129	     -6.93021247	    -15.37851117	     42.78841575	     90.00000001	      0.00000000	      0.00000000
      0.14000000	     11.73032712	      2.06017811	      0.96957389	     -0.96989618	      0.88498035	     -0.33514879	     12.28072468	     -4.35543396	     -6.79292242	     45.07641823	     -2.00727869	      0.78673191	     14.19693183	    -13.55076133	     -8.76946147	    -25.09631952	      2.99700535	    -19.64178045	      2.19703346	      6.09090539	      0.03834547	     19.55442770	     13.79187942	     -8.76946147	    -25.16443557	     -4.39398701	     -7.73871173	     -4.02231895	     -0.58404383	    -30.27249767	     33.42772834	     90.00000001	      0.00000000	      0.00000000	      3.63931891	     -7.22066735	    -14.01183353	     43.60422279	     90.00000001	      0.00000000	      0.00000000
